<svg xmlns="http://www.w3.org/2000/svg" width="210" height="86" viewBox="0 0 210 86">
  <g id="Page-1" fill="none" fill-rule="evenodd" stroke="none" stroke-width="1">
    <g id="Generation_Colombia_logo_NEW-BLUE" fill="#0074B9" fill-rule="nonzero">
      <g id="Group">
        <path id="Path" d="M209.949893,21.9272712 C210.248223,23.0460095 209.129485,24.313913 208.831154,25.5072339 C209.27865,26.5513896 208.905737,26.998885 208.234494,28.2667884 C206.295348,31.4738383 205.474939,35.6504614 202.789967,39.230424 C202.86455,36.9929474 204.207036,34.6808881 205.549522,32.7417417 C203.16288,34.4571405 201.894977,37.5896078 202.342472,39.8270845 C202.715385,39.901667 202.417055,39.4541717 202.789967,39.230424 C203.088298,39.3050066 202.789967,39.9762496 203.16288,39.5287542 C203.312045,39.7525019 202.789967,40.1999972 202.640802,40.1999972 C202.342472,41.4679007 203.013715,42.3628913 203.535793,43.4070471 C203.610376,43.5562122 203.312045,43.7053773 203.312045,43.8545424 C203.535793,44.6749505 204.729114,45.4207761 205.847852,46.3157668 C206.36993,46.1666016 206.966591,46.4649319 207.563251,46.6886795 C205.922435,47.5090876 204.207036,48.4786609 202.26789,47.4345051 C201.894977,47.28534 202.342472,46.9870097 202.26789,46.8378446 C200.552491,45.7936889 200.477908,44.4512029 199.508335,43.3324645 C199.881248,43.0341343 199.284587,42.586639 199.806665,42.5120564 C199.433752,40.8712402 199.582918,39.230424 199.433752,37.5150252 C200.403326,36.0979567 200.403326,34.9046358 200.925404,33.5621498 C200.999986,33.189237 200.552491,33.4875673 200.627073,33.189237 C201.969559,29.9076046 202.640802,26.9243024 203.983288,23.4189223 C203.16288,23.4189223 202.715385,23.9410002 201.969559,24.0901653 C201.820394,24.0901653 201.522064,23.8664177 201.298316,23.9410002 C200.030413,24.4630781 199.284587,26.4022245 197.942101,26.8497199 C198.240432,25.9547292 199.284587,25.3580688 199.881248,24.4630781 C198.687927,24.6868258 197.718354,26.5513896 196.599615,27.2972152 C197.270858,25.5072339 199.06084,24.1647479 200.328743,22.3747665 C200.030413,22.1510189 199.732083,22.5239317 199.508335,22.6730968 C199.6575,21.7035236 200.701656,21.2560282 201.223734,20.5847852 C198.911675,21.628941 197.494606,24.4630781 195.182547,27.1480501 C195.55546,27.1480501 195.85379,26.327642 196.15212,26.0293118 C196.599615,27.5209629 193.690896,29.0871965 193.690896,30.6534302 C194.287556,30.4296825 194.362139,29.0871965 195.182547,29.3109442 C194.660469,29.9076046 194.436721,30.1313523 194.287556,30.8025953 C192.870488,31.0263429 193.168818,33.1146545 192.34841,34.0842277 C192.497575,34.3825579 192.273827,34.6808881 192.497575,34.9792184 C190.260098,38.7829287 188.768447,42.9595518 185.486815,46.614097 C185.33765,46.4649319 185.63598,46.1666016 185.486815,46.0174365 C184.815572,45.6445238 184.368076,46.9124272 183.771416,46.9124272 C183.323921,46.614097 183.622251,46.2411842 183.622251,45.8682714 C181.608522,46.0174365 181.011861,43.6307948 180.788114,42.4374739 C181.235609,41.915396 181.384774,41.1695704 181.459357,40.4983275 C186.307223,34.4571405 188.544699,28.5651186 191.453419,22.6730968 C191.080506,22.8222619 190.633011,22.5239317 190.185516,22.6730968 C191.005924,21.8526887 191.677167,21.7035236 192.199245,20.957698 C193.168818,19.615212 192.870488,17.2285702 194.660469,15.8860842 C195.406295,16.3335796 196.15212,16.5573272 197.196276,17.4523179 C197.270858,18.1981435 197.270858,19.0185516 197.121693,19.8389597 C197.345441,19.9135422 197.643771,20.4356201 197.792936,19.9881248 C197.867519,20.2118724 197.792936,20.4356201 197.569189,20.7339503 C197.867519,20.7339503 198.091267,20.1372899 198.389597,20.0627073 C198.837092,20.2118724 198.240432,20.4356201 198.613344,20.5847852 C198.986257,20.5102027 199.284587,20.3610376 199.582918,20.0627073 C199.881248,20.5102027 200.104995,20.2118724 200.403326,20.3610376 C201.298316,19.3168818 202.640802,18.4218911 204.057871,18.4964737 C204.356201,18.1235609 204.281619,17.7506481 204.729114,17.7506481 C205.102027,17.8998132 204.952862,18.1235609 204.729114,18.3473086 C205.251192,18.4218911 205.325774,18.1235609 205.400357,17.601483 C206.220765,18.5710562 206.966591,18.1235609 207.488668,18.4964737 C207.861581,18.5710562 207.563251,18.1235609 207.861581,18.1981435 C208.085329,18.7948039 208.383659,19.3168818 209.27865,19.8389597 C208.831154,20.3610376 209.353232,20.7339503 208.831154,21.3306108 C209.054902,21.4797759 209.204067,21.628941 209.427815,21.7781061 C209.27865,22.1510189 209.204067,22.5239317 209.27865,22.8968444 C209.502397,22.7476793 209.726145,22.1510189 209.949893,21.9272712"/>
        <path id="Path" d="M208.010746 29.9821872C208.085329 30.2059348 208.010746 30.4296825 207.786999 30.7280127 207.339503 30.5788476 207.936164 30.2059348 208.010746 29.9821872M205.549522 32.7417417C204.132453 34.6808881 202.86455 37.0675299 202.789967 39.230424 202.417055 39.3795891 202.715385 39.901667 202.342472 39.8270845 201.894977 37.5896078 203.16288 34.4571405 205.549522 32.7417417"/>
        <path id="Shape" d="M180.415201,31.0263429 C180.638949,30.4296825 181.757687,29.7584395 181.235609,29.3109442 C181.011861,29.9076046 180.415201,30.5042651 180.415201,31.0263429 M183.547668,27.8192931 C184.144329,27.2226326 184.666407,25.9547292 184.517241,25.2089036 C184.218911,26.1038943 183.622251,26.998885 183.547668,27.8192931 M186.978466,21.7781061 C187.127631,23.1205921 184.890154,24.6868258 185.039319,26.1038943 C185.412232,26.4022245 185.63598,25.5818164 185.93431,25.5072339 C185.188484,26.5513896 184.815572,28.2667884 183.696833,28.9380314 C182.652678,31.4738383 181.235609,34.0096452 178.92355,36.4708695 C178.699802,36.7691997 179.072715,36.9929474 179.072715,37.2912776 C178.550637,38.4100159 177.804811,38.1862682 177.208151,39.1558415 C176.835238,38.7829287 177.581064,38.7829287 177.357316,38.4845985 C176.387743,39.3050066 175.567335,40.8712402 174.597762,41.9899786 C175.343587,41.8408134 175.940248,40.57291 176.686073,40.7966577 C176.089413,42.2883088 173.851936,43.4070471 172.584033,44.6749505 C172.50945,45.1970284 172.285702,45.7191063 171.763625,46.0174365 C171.465294,45.7191063 171.689042,45.3461935 171.91279,44.8986982 C171.017799,45.6445238 170.048226,45.8682714 169.153235,46.5395144 C169.00407,46.3903493 169.3024,46.0920191 169.153235,45.942854 C167.363254,46.8378446 165.349525,45.7191063 163.559543,45.1970284 C161.322067,41.3933181 161.396649,36.2471218 165.20036,32.0704987 C165.946185,29.3109442 167.810749,26.4022245 170.122808,23.7172525 C172.434868,20.8831154 174.075684,17.0048226 177.133569,16.0352494 C178.848967,17.3031528 180.191453,18.6456388 180.191453,20.2118724 C177.282734,22.300184 174.896092,24.9105734 172.360285,28.1922058 C172.956945,28.5651186 174.075684,27.2972152 174.746927,26.2530594 C174.896092,27.5955454 171.763625,28.7888663 172.136537,30.4296825 C171.166964,31.2500906 170.868634,31.8467511 170.048226,33.0400719 C170.346556,33.2638196 170.421139,32.2196638 170.794051,32.6671592 C169.749896,34.9046358 168.258244,36.0979567 167.139506,38.2608508 C167.587001,38.1116857 167.959914,37.216695 168.40741,36.7691997 C168.332827,37.9625206 167.288671,39.3795891 166.990341,40.57291 C168.034497,40.0508321 168.929487,39.6779193 169.973643,39.0812589 C171.390712,38.2608508 172.360285,36.8437822 173.777354,35.7250439 C174.821509,34.9792184 176.462326,34.6063056 177.058986,33.1146545 C177.357316,32.8163243 177.730229,32.8163243 178.028559,32.5925766 C180.788114,29.4601093 183.249338,26.0293118 184.517241,22.5239317 C185.113902,22.3747665 185.263067,21.9272712 186.083475,21.2560282 C185.785145,20.8831154 185.63598,21.628941 185.263067,21.2560282 C185.412232,20.5847852 186.083475,20.3610376 186.53097,19.9135422 C187.202213,20.2118724 185.710562,21.628941 185.859727,22.300184 C186.307223,22.7476793 186.53097,21.7035236 186.978466,21.7781061"/>
        <path id="Path" d="M184.591824 31.0263429C184.666407 31.5484208 184.293494 32.0704987 183.845998 32.2942464 183.771416 31.9213336 184.368076 31.3992557 184.591824 31.0263429M178.62522 39.1558415C178.774385 39.7525019 178.103142 39.901667 177.953977 40.4983275 177.581064 40.1254147 178.476054 39.6033368 178.62522 39.1558415M177.357316 40.0508321C177.804811 40.1999972 177.208151 40.8712402 176.984403 40.3491623 177.058986 40.1999972 177.208151 39.9762496 177.357316 40.0508321M165.573272 7.23450785C167.437836 7.23450785 169.227818 9.47198451 169.3024 10.8890531 168.034497 11.7094612 166.692011 12.0077914 166.319098 13.8723553 165.274942 11.7840437 165.424107 9.47198451 165.573272 7.23450785"/>
        <path id="Shape" d="M150.656761 41.3933181C151.626335 39.8270845 153.267151 38.3354334 153.490899 36.6946171 152.297578 38.1862682 151.029674 39.7525019 150.656761 41.3933181M159.010008 23.7172525C159.532085 24.5376606 159.08459 25.4326513 159.38292 26.327642 159.233755 26.7751373 159.010008 27.5209629 158.562512 27.670128 158.860842 28.0430407 159.08459 27.5209629 159.38292 27.9684582 158.860842 28.8634488 158.115017 29.8330221 158.413347 30.5788476 155.28088 34.9046358 151.551752 40.4983275 149.761771 45.3461935 149.239693 45.1224459 148.643032 44.8986982 148.27012 45.4953586 147.673459 45.271611 148.344702 44.8241157 147.748042 44.5257854 147.225964 44.2274552 146.778469 44.8241157 146.330973 45.0478633 145.65973 44.1528727 145.435983 43.1087169 144.913905 42.2137262 145.95806 39.0812589 147.822624 35.7996265 149.16511 32.6671592 149.985518 31.2500906 150.955092 30.0567697 151.626335 28.8634488 151.850082 28.4905361 151.7755 28.1176233 151.999247 27.7447105 152.819656 26.327642 153.938394 25.2089036 154.460472 23.7172525 154.758802 22.8222619 154.609637 21.7035236 155.802958 21.4797759 157.145444 22.0018538 157.891269 22.7476793 159.010008 23.7172525M112.321328 31.6230034C112.545076 31.3246732 113.216319 31.1755081 113.141736 30.7280127 112.843406 30.8025953 112.172163 31.2500906 112.321328 31.6230034M123.732459 19.9881248C122.539138 20.4356201 121.196652 20.3610376 120.152496 21.9272712 119.332088 22.1510189 118.660845 22.971427 118.437098 23.8664177 115.975873 25.5818164 115.0063 28.0430407 113.216319 30.4296825 113.440066 30.2805174 113.589232 29.9821872 113.887562 29.9821872 113.589232 31.6975859 111.50092 33.1146545 111.20259 34.7554707 111.128007 34.8300533 111.053425 35.0538009 111.20259 34.9046358 111.426337 34.4571405 111.50092 34.3825579 111.873833 34.3825579 111.873833 35.1283835 110.829677 36.0979567 111.053425 36.7691997 115.975873 32.7417417 120.749157 25.8801466 123.732459 19.9881248M126.417431 33.6367324C126.566596 33.3384022 126.342848 33.1146545 126.193683 32.8909068 125.820771 33.1146545 126.492014 33.189237 126.119101 33.4129847 126.268266 33.4875673 126.342848 33.5621498 126.417431 33.6367324M138.499805 24.7614083C139.469378 23.1951747 141.184777 22.5239317 141.259359 21.2560282 140.364369 22.300184 139.021883 23.3443398 138.499805 24.7614083M159.08459 14.245268C158.562512 14.4690157 158.711677 15.1402587 158.189599 15.2894238 157.891269 14.5435983 158.338765 13.6486076 157.145444 12.9773646 153.938394 12.9773646 151.328004 17.0048226 148.195537 18.7202213 146.853051 19.4660469 144.913905 19.5406295 143.646001 21.7781061 144.466409 21.4797759 144.988487 20.0627073 146.032643 20.1372899 144.391827 22.6730968 142.15435 25.3580688 139.991456 27.2972152 140.588116 25.7309815 142.005185 24.6868258 142.825593 22.971427 140.588116 25.1343211 138.425222 27.670128 136.336911 30.8025953 136.858989 30.5042651 137.306484 29.9076046 137.828562 29.4601093 137.753979 30.8025953 136.262328 32.3688289 135.74025 33.7113149 136.262328 33.7113149 136.635241 32.7417417 137.082736 32.2942464 137.008154 32.6671592 136.784406 33.5621498 136.411493 33.4875673 135.367338 35.7250439 135.591085 37.7387729 134.919842 39.901667 135.069007 39.901667 135.292755 39.8270845 135.44192 39.6779193 135.591085 40.6474926 134.248599 41.3933181 134.024852 42.4374739 133.801104 44.3020378 133.875687 46.9124272 131.63821 47.8074179 131.041549 47.5836702 130.519472 47.6582527 129.997394 48.1803306 129.624481 47.8074179 129.326151 47.8074179 129.02782 48.0311655 127.536169 47.3599225 127.909082 46.3157668 126.864926 45.5699412 126.939509 44.7495331 126.566596 43.929125 126.864926 43.1087169 125.074945 42.7358041 123.807042 41.3933181 122.837468 40.1999972 122.986633 39.9762496 123.135799 40.0508321 123.210381 39.901667 122.31539 39.0066763 122.464556 37.9625206 121.793313 37.0675299 122.01706 35.6504614 121.71873 34.2333928 121.644147 32.8909068 121.793313 32.4434115 121.4204 33.1146545 121.271235 32.7417417 121.271235 32.4434115 121.12207 32.1450813 121.569565 31.6975859 121.196652 31.8467511 121.12207 31.6230034 121.047487 31.3246732 119.555836 33.1146545 119.481253 34.6808881 117.91502 36.4708695 117.840437 36.6200346 118.21335 36.6946171 118.064185 36.9183648 116.050456 40.7966577 112.992571 43.4816297 109.934686 45.0478633 109.561774 44.9732808 110.456764 44.8986982 110.531347 44.4512029 109.860104 43.929125 108.443035 44.4512029 108.219288 43.4070471 107.846375 43.1087169 107.548045 43.4816297 107.249714 43.257882 106.727636 42.0645611 105.758063 40.9458228 105.608898 39.6033368 105.832646 37.6641904 106.056393 35.7996265 106.280141 33.86048 108.368453 30.7280127 109.188861 27.1480501 111.575503 23.8664177 112.321328 22.8968444 113.067154 21.4797759 113.962144 20.4356201 115.60296 18.4964737 117.691272 15.9606668 120.003331 15.3640064 121.494982 16.4081621 123.061216 17.4523179 124.030789 18.5710562 124.254537 18.8693865 124.254537 19.1677167 124.105372 19.5406295 124.552867 19.5406295 124.776615 18.5710562 125.298693 19.1677167 125.373275 18.943969 125.969936 18.5710562 125.52244 18.4218911 125.671605 18.0489783 126.044518 18.7202213 126.193683 18.3473086 126.566596 19.0185516 127.014091 18.7948039 127.461587 19.3168818 128.580325 20.5102027 127.8345 21.8526887 128.281995 23.2697572 127.909082 23.7918351 127.685334 24.2393304 127.685334 24.6868258 128.13283 24.8359909 127.909082 23.9410002 128.207412 24.1647479 128.72949 25.0597385 127.610752 26.2530594 128.13283 27.1480501 127.909082 27.4463803 127.909082 27.7447105 127.610752 28.1176233 127.536169 28.2667884 127.8345 28.4159535 127.909082 28.4905361 126.939509 29.9076046 127.237839 31.1009255 126.342848 32.517994 127.014091 32.7417417 126.790344 31.6975859 127.237839 31.3246732 127.088674 33.86048 125.671605 36.6200346 126.193683 39.0812589 126.864926 39.5287542 127.461587 39.9762496 128.058247 40.4237449 128.72949 40.2745798 129.102403 39.0066763 129.251568 38.4100159 131.712792 32.2942464 136.411493 26.2530594 139.021883 20.0627073 137.381067 20.5102027 135.814833 21.4051933 133.875687 19.9881248 133.801104 19.2422992 132.682366 18.6456388 132.682366 17.8998132 136.113163 16.0352494 139.543961 14.0961029 143.198506 13.3502774 145.510565 8.94990662 147.971789 4.25120564 150.358431 0 153.789229 2.23747665 149.985518 5.59369164 150.433014 8.27866362 149.463441 9.24823684 149.761771 9.99406239 149.761771 10.8144705 150.060101 10.9636356 150.283849 10.6653054 150.582179 11.1128007 150.955092 10.8144705 151.328004 11.1128007 151.850082 11.1128007 151.999247 11.1128007 152.148413 10.8890531 152.37216 10.8890531 152.521325 10.8890531 152.67049 11.1873833 152.745073 11.1873833 153.938394 11.1873833 155.952123 10.9636356 157.145444 11.6348786 158.338765 12.1569565 159.010008 13.2011123 159.08459 14.245268"/>
        <path id="Path" d="M140.513534,29.0871965 C139.916873,30.1313523 139.543961,31.1009255 138.574387,32.1450813 C138.574387,31.9959162 138.499805,31.7721685 138.499805,31.6230034 C139.171048,30.8771778 140.066039,29.2363616 140.513534,29.0871965"/>
        <path id="Shape" d="M99.1947984,23.1951747 C99.8660414,22.0764363 101.059362,21.4051933 101.432275,20.3610376 C100.686449,20.7339503 99.2693809,22.7476793 99.1947984,23.1951747 M102.401848,19.615212 C102.625596,19.1677167 103.073091,19.1677167 102.849344,18.7202213 C102.774761,19.0185516 102.252683,19.3914643 102.401848,19.615212 M104.564742,16.3335796 C104.19183,15.9606668 103.893499,16.7810749 103.595169,16.8556575 C103.968082,17.0794051 104.19183,16.4827447 104.564742,16.3335796 M115.528378,12.3807042 C115.528378,12.8281995 115.30463,13.4994425 114.857135,13.7231901 C112.694241,12.7536169 110.978842,14.8419285 109.114278,15.6623366 C108.965113,15.8860842 108.965113,16.1844145 108.741365,16.4081621 C108.368453,16.6319098 108.890531,15.9606668 109.039696,15.8115017 C108.815948,15.4385889 108.741365,16.1098319 108.517618,15.7369191 C106.802219,17.3777354 104.937655,17.8998132 103.296839,19.9135422 C105.012238,18.943969 106.727636,17.5269005 108.368453,16.3335796 C108.070122,17.601483 106.205559,18.272726 105.235985,19.0931341 C103.073091,22.300184 99.5677111,25.5818164 97.1810694,29.2363616 C97.2556519,28.7888663 97.1810694,28.4905361 96.6589915,28.5651186 C96.8081566,28.1922058 97.1064868,27.7447105 97.1064868,27.3717977 C96.6589915,28.341371 94.6452625,30.3550999 95.5402532,31.3992557 C95.7640008,31.3246732 96.062331,30.5042651 96.5098264,30.1313523 C96.3606613,31.1009255 94.9435927,32.5925766 94.3469323,33.9350626 C94.8690102,34.0096452 95.0181753,33.2638196 95.3165055,32.8163243 C95.0181753,34.7554707 93.8248544,36.8437822 93.0044463,38.9320938 C92.7061161,39.1558415 93.5265242,39.230424 93.2281939,39.4541717 C92.7061161,41.0949879 91.9602905,42.8103867 91.214465,44.5257854 C90.3940569,44.1528727 90.6923871,43.6307948 90.543222,43.1087169 C89.9465615,43.5562122 89.4244836,44.5257854 88.7532406,44.3020378 C88.6786581,44.0782901 88.7532406,43.8545424 88.6786581,43.6307948 C88.3803279,43.1832994 88.2311628,43.7799599 87.9328325,43.4070471 C87.4107546,42.8103867 87.2615895,42.1391437 86.6649291,41.6170658 C87.1124244,40.57291 86.0682687,39.9762496 86.4411814,39.0066763 C86.515764,38.7083461 86.8886768,38.4845985 87.0378419,38.1862682 C87.3361721,37.3658601 87.5599198,36.4708695 87.9328325,35.6504614 C90.0211441,31.4738383 90.7669696,26.6259722 92.7806986,22.3747665 C92.9298637,21.5543584 92.7061161,20.8085329 92.3332033,20.0627073 C92.8552812,19.4660469 93.6011067,20.1372899 94.1231846,19.5406295 C94.7944276,20.286455 95.9877485,20.0627073 96.1369136,20.957698 C96.8081566,20.7339503 97.404817,20.2118724 97.9268949,19.5406295 C101.656023,18.3473086 105.012238,14.9910936 108.666783,13.6486076 C108.890531,13.3502774 108.443035,13.2011123 108.890531,12.902782 C109.785521,12.3807042 111.650085,11.8586263 112.768823,12.0077914 C113.812979,12.0077914 114.633387,11.4857135 115.528378,12.3807042"/>
        <path id="Path" d="M111.724668 15.8860842C111.128007 17.3777354 109.039696 17.6760656 107.846375 19.0185516 107.473462 19.4660469 107.025967 20.286455 106.354724 20.6593678 106.205559 20.7339503 105.907228 20.5847852 105.758063 20.6593678 105.310568 20.957698 104.78849 21.7035236 104.117247 22.2256014 103.371421 22.8222619 102.476431 23.0460095 102.476431 23.7918351 101.87977 23.7918351 101.506858 24.7614083 100.98478 25.1343211 102.849344 21.0322806 106.653054 19.3914643 109.412608 16.4827447 110.158434 17.0048226 111.053425 16.1098319 111.724668 15.8860842M106.130976 21.4051933C105.534316 22.0764363 105.608898 22.8222619 104.863073 23.1205921 105.161403 22.5985142 105.310568 21.4797759 106.130976 21.4051933"/>
        <path id="Path" d="M102.774761 23.7172525C102.774761 24.0901653 102.551013 24.4630781 102.252683 24.8359909 101.954353 24.313913 102.401848 24.0155828 102.774761 23.7172525M101.87977 24.985156C101.954353 25.3580688 101.656023 26.1784769 101.133945 25.9547292 101.059362 25.5818164 101.58144 25.2834862 101.87977 24.985156M100.611867 26.5513896C101.059362 26.7005547 100.462702 27.0734675 100.313537 27.1480501 100.089789 26.998885 100.313537 26.4022245 100.611867 26.5513896M90.3194743 19.6897946C90.6178045 19.9135422 90.7669696 19.4660469 91.0652998 19.9135422 89.4990662 22.8222619 87.7090849 28.8634488 84.0545397 30.3550999 83.830792 30.6534302 84.0545397 30.8025953 83.830792 31.1009255 82.9358013 31.6975859 82.0408107 32.2942464 81.14582 33.1146545 78.6100131 33.0400719 78.2371004 37.0675299 76.5962841 38.6337636 76.2233714 37.4404427 77.0437795 35.9487916 77.4166923 34.6063056 75.2537982 36.7691997 75.4029633 39.3050066 75.8504586 41.3933181 77.4166923 42.0645611 79.4304212 40.9458228 81.14582 39.7525019 82.7120537 38.7083461 84.3528699 37.1421125 85.9936861 35.6504614 86.2174338 35.9487916 85.9936861 36.3217044 86.2920163 36.6200346 84.0545397 39.0066763 83.6070443 42.2137262 81.5933153 44.4512029 81.5187328 44.600368 81.7424805 44.7495331 81.8916456 44.8241157 80.9220723 45.4207761 80.1016642 46.3903493 78.9829259 46.0920191 78.460848 46.5395144 77.9387701 47.1361749 77.3421097 46.6886795 77.5658574 46.4649319 78.1625178 46.3903493 78.1625178 46.0174365 77.118362 46.3157668 75.7012935 46.0920191 74.43339 45.7191063 73.7621471 45.4953586 73.8367296 44.9732808 73.3146517 44.3020378 72.5688262 43.4070471 71.5246704 42.9595518 72.1213308 41.915396 71.4500878 41.6916483 71.8230006 41.244153 71.3009227 41.0204053 71.6738355 40.6474926 71.7484181 40.2745798 71.7484181 39.9762496 71.1517576 38.4100159 72.0467483 36.6200346 72.0467483 34.9792184 73.3146517 32.517994 74.7317203 29.6092744 75.7012935 27.4463803 76.5217016 26.9243024 76.3725365 26.327642 77.2675271 25.3580688 77.4912748 25.0597385 77.1929446 24.9105734 77.118362 24.6868258 78.6845957 22.7476793 79.6541689 20.6593678 81.2949851 19.0185516 82.0408107 17.1539877 84.4274524 16.5573272 85.7699384 14.9910936 86.4411814 15.1402587 87.0378419 14.6927634 87.7090849 14.6181808 88.0819976 14.7673459 87.7090849 14.916511 87.5599198 14.9910936 87.85825 14.9910936 88.0074151 15.5131715 88.6786581 15.9606668 90.6178045 16.4081621 90.4686394 18.4218911 90.3194743 19.6897946"/>
        <path id="Path" d="M77.9387701 38.1862682C78.2371004 38.4100159 77.7150225 39.0066763 77.4166923 39.0812589 77.3421097 38.7829287 77.8641876 38.4100159 77.9387701 38.1862682M73.8367296 27.5209629C74.0604773 27.9684582 73.3146517 28.5651186 73.0163215 29.0871965 72.7925738 28.6397012 73.4638168 27.8192931 73.8367296 27.5209629"/>
        <path id="Shape" d="M6.19035208,26.4022245 C6.33951719,25.8055641 7.23450785,25.1343211 7.08534274,24.6122432 C6.56326485,25.2089036 5.96660441,25.8801466 6.19035208,26.4022245 M13.4994425,45.7191063 C15.8115017,42.7358041 18.5710562,40.3491623 19.9881248,36.6946171 C17.8252307,39.5287542 14.6927634,42.586639 13.4994425,45.7191063 M19.4660469,38.4100159 C19.9881248,38.9320938 20.5102027,37.5150252 20.286455,37.2912776 C19.7643771,37.8133555 19.8389597,38.1116857 19.4660469,38.4100159 M20.8085329,38.1862682 C21.2560282,37.0675299 21.8526887,36.9183648 22.300184,35.9487916 C21.5543584,36.1725393 20.8085329,37.5150252 20.8085329,38.1862682 M47.0615923,20.3610376 C45.6445238,19.9881248 43.929125,22.0018538 42.3628913,22.4493491 C39.0066763,25.4326513 36.4708695,28.1176233 33.9350626,32.2942464 C38.4845985,29.5346918 43.1832994,25.7309815 47.0615923,20.3610376 M23.2697572,36.1725393 C23.3443398,36.0233741 23.4189223,35.9487916 23.4935049,35.7996265 C23.3443398,35.9487916 23.2697572,36.0979567 23.2697572,36.1725393 M23.2697572,36.1725393 C22.300184,37.6641904 20.6593678,39.5287542 20.1372899,41.0204053 C18.943969,41.6916483 17.8998132,43.6307948 16.6319098,44.1528727 C14.6181808,46.8378446 12.3807042,47.8074179 10.1432275,49.0753213 C8.35324618,48.7769911 6.78701252,50.0448945 4.9970312,49.5973992 C4.47495331,49.3736515 4.84786609,49.0007387 4.92244864,48.627826 C3.57996265,48.3294957 2.53580688,47.7328353 1.78998132,46.3903493 C1.26790344,45.4207761 1.11873833,43.4070471 0.671242996,42.0645611 C0.447495331,41.4679007 0.223747665,40.7220751 0.14916511,39.8270845 C-1.05988186e-14,38.4845985 0.298330221,37.5150252 -1.05988186e-14,36.2471218 C1.56623366,29.1617791 4.9970312,19.9135422 11.9332088,12.902782 C14.8419285,9.99406239 18.0489783,6.4886823 21.4797759,4.92244864 C22.3747665,4.92244864 23.4935049,4.54953586 24.6868258,5.14619631 C26.0293118,5.8174393 27.1480501,6.93617763 27.8192931,7.9803334 C26.998885,8.57699384 26.1038943,8.50241129 25.2834862,8.57699384 C24.4630781,9.02448917 23.7172525,9.69573217 22.8222619,9.84489728 C17.9743958,13.4994425 13.2011123,17.5269005 8.80074151,23.9410002 C8.87532406,25.4326513 7.90575085,26.327642 7.1599253,27.8192931 C6.63784741,28.9380314 6.33951719,30.3550999 5.89202186,31.6230034 C4.9970312,34.0842277 4.25120564,36.4708695 4.10204053,38.7083461 C4.3257882,38.8575112 4.47495331,38.2608508 4.77328353,38.6337636 C3.87829287,39.4541717 4.77328353,39.901667 3.87829287,40.7220751 C4.17662309,42.1391437 4.40037075,43.5562122 4.40037075,45.0478633 C6.56326485,45.5699412 8.50241129,42.9595518 11.0382182,41.0204053 C11.560296,40.6474926 12.231539,40.1999972 13.1265297,39.4541717 C16.4827447,36.545452 21.1068631,31.1009255 22.8968444,26.7751373 C20.1372899,26.9243024 17.6760656,29.3855267 14.9910936,30.2059348 C14.4690157,29.683857 13.9469378,29.683857 13.4994425,29.7584395 C12.0823739,28.7888663 12.9773646,27.5209629 11.9332088,26.4768071 C17.5269005,21.5543584 23.5680874,19.5406295 29.5346918,16.7064924 C32.2196638,16.4081621 34.9046358,15.8860842 37.7387729,16.5573272 C38.2608508,17.0048226 38.7083461,17.1539877 39.1558415,17.3031528 C39.8270845,18.1981435 40.7220751,19.0185516 40.1254147,20.1372899 C43.0341343,18.5710562 45.7936889,15.6623366 49.0007387,15.587754 C50.4178073,16.5573272 51.8348758,17.5269005 52.0586235,18.7202213 C51.2382154,20.3610376 50.7161375,21.628941 49.3736515,23.4189223 C49.4482341,23.64267 49.0007387,23.9410002 49.4482341,24.0901653 C48.9261562,25.2089036 47.956583,26.8497199 46.7632621,27.7447105 C46.6886795,28.1922058 47.1361749,27.3717977 47.3599225,27.7447105 C46.8378446,28.341371 46.3157668,29.5346918 45.6445238,29.3855267 C45.5699412,29.0871965 45.7936889,28.7142837 46.0920191,28.341371 C44.9732808,29.8330221 43.257882,30.6534302 42.586639,31.8467511 C42.5120564,31.6975859 42.586639,31.4738383 42.6612216,31.3246732 C39.6033368,34.3825579 36.3217044,36.3217044 32.9654894,37.6641904 C33.0400719,39.0812589 32.8909068,40.4983275 32.9654894,41.915396 C36.4708695,41.5424832 39.6033368,39.1558415 42.8849692,37.5150252 C44.0782901,36.3217044 45.5699412,35.7250439 46.7632621,34.6808881 C48.3294957,33.3384022 49.4482341,32.0704987 51.1636328,30.3550999 C51.9094584,29.6092744 52.7298665,29.0871965 53.1773618,28.4905361 C54.146935,26.998885 54.3706827,25.2089036 55.4148385,23.7172525 C56.0860815,21.2560282 58.3235581,18.4964737 58.0252279,16.1844145 C58.9948011,15.8115017 60.188122,16.7810749 61.3814429,17.6760656 C61.2322778,18.0489783 61.4560255,18.3473086 61.4560255,18.6456388 C62.2764336,18.272726 63.0222591,17.7506481 63.8426672,17.3031528 C63.9172498,17.4523179 63.8426672,17.6760656 63.7680847,17.8252307 C66.6022218,16.3335796 70.1821844,14.6927634 73.2400692,18.272726 C73.0163215,18.5710562 73.3892343,18.7948039 73.0909041,19.0931341 C76.2233714,20.8085329 75.4775458,24.0155828 73.0909041,25.9547292 C72.4196611,27.670128 70.7042623,29.6092744 69.8838542,31.5484208 C68.6159507,33.9350626 66.0055613,35.4267137 65.7818136,37.5896078 C67.9447077,35.9487916 68.914281,33.1146545 70.7042623,30.8025953 C70.3313495,32.6671592 68.6905333,34.7554707 67.571795,36.7691997 C67.2734648,36.8437822 66.9751345,37.216695 66.6768043,37.1421125 C66.6022218,38.3354334 65.7072311,38.559181 65.7072311,39.6779193 C65.9309788,39.8270845 66.0801439,39.3795891 66.3038915,39.5287542 C66.5276392,38.559181 67.4972124,37.5150252 67.7209601,36.9183648 C68.243038,37.5896078 67.7209601,37.9625206 67.1988822,38.8575112 C67.8701252,38.9320938 68.3922031,37.7387729 69.0634461,37.5896078 C68.0192903,39.901667 66.9751345,42.3628913 64.886823,43.7053773 C64.0664149,43.1832994 63.4697544,43.4816297 62.7239289,43.7053773 C60.7847825,42.5120564 61.4560255,40.9458228 61.0085301,39.6033368 C61.6051906,37.6641904 62.9476766,36.1725393 63.6189196,34.1588103 C64.21558,32.3688289 64.5884928,30.5788476 65.3343183,28.8634488 C65.6326485,28.2667884 65.8563962,27.670128 65.7818136,27.0734675 C66.7513869,25.5072339 67.4972124,23.2697572 68.243038,21.4051933 C66.3784741,20.8085329 64.9614055,23.7172525 63.3205893,24.5376606 C62.2764336,26.327642 60.2627046,27.3717977 59.0693837,29.0871965 C57.8760628,30.8025953 57.5777326,32.8163243 56.3098291,34.531723 C56.0114989,34.9046358 56.4589943,35.1283835 56.3844117,35.5012963 C55.4148385,35.9487916 55.1165083,36.8437822 54.5198478,37.8133555 C54.9673432,37.8133555 55.1910908,36.6946171 55.6385861,37.1421125 C54.7435955,39.0066763 53.2519444,41.3933181 52.5807014,43.7799599 C51.6857107,44.6749505 50.5669724,43.7053773 49.5228166,43.4070471 C48.3294957,42.586639 48.4040783,41.6170658 47.28534,40.8712402 C47.5090876,39.901667 47.5090876,38.9320938 47.3599225,38.0371031 C48.7769911,36.0233741 49.7465643,34.1588103 50.8653026,32.2196638 C48.8515736,33.7858975 47.0615923,36.6200346 44.9732808,37.9625206 C45.1970284,37.7387729 45.271611,37.4404427 45.1970284,37.2912776 C45.1224459,37.5150252 44.5257854,37.8133555 44.8986982,38.0371031 C44.7495331,38.1116857 44.600368,38.1862682 44.4512029,38.3354334 C44.1528727,38.7083461 43.929125,39.0812589 43.6307948,39.4541717 C43.4816297,39.5287542 43.8545424,39.901667 44.0037075,39.8270845 C41.6916483,43.1832994 38.4100159,46.6886795 34.9792184,47.3599225 C34.9046358,46.6886795 33.6367324,46.3903493 33.189237,46.6886795 C31.9213336,45.6445238 31.7721685,46.3903493 30.2805174,45.1970284 C30.3550999,45.0478633 30.5042651,44.8986982 30.5788476,44.8241157 C30.2059348,44.5257854 29.8330221,44.3020378 29.4601093,44.0037075 C27.8192931,41.244153 27.9684582,38.2608508 28.7888663,35.1283835 C29.012614,34.7554707 29.3109442,34.9046358 29.5346918,34.6063056 C30.7280127,29.7584395 35.5758788,25.5818164 39.0066763,20.8831154 C38.9320938,19.9881248 38.9320938,19.0931341 38.4845985,18.1981435 C35.7250439,16.6319098 33.7113149,20.286455 31.3246732,21.2560282 C30.2059348,22.971427 28.8634488,22.971427 27.7447105,24.4630781 C27.5955454,24.3884955 27.3717977,24.1647479 27.2972152,24.2393304 C26.7751373,25.2834862 27.5209629,26.1784769 26.1784769,27.3717977 C25.9547292,27.7447105 26.7005547,27.2226326 26.4768071,27.5955454 C26.1038943,28.5651186 25.0597385,29.6092744 24.4630781,30.5788476 C25.2834862,30.6534302 24.9105734,29.9076046 25.4326513,29.6092744 C25.5818164,29.5346918 24.8359909,30.4296825 24.8359909,30.6534302 C24.7614083,30.8025953 25.0597385,30.8771778 24.985156,31.1009255 C24.3884955,32.3688289 23.4935049,33.6367324 23.1205921,34.4571405 C25.2834862,33.3384022 26.4768071,28.8634488 28.0430407,26.7751373 C27.8938756,28.4159535 26.998885,30.2059348 26.1784769,31.9959162 C25.1343211,33.3384022 24.0901653,34.7554707 24.2393304,35.874209 C23.7172525,36.4708695 23.1951747,37.5150252 22.5985142,37.887938 C23.1205921,37.1421125 23.0460095,36.6946171 23.2697572,36.1725393 M6.93617763,23.7918351 C7.08534274,23.64267 7.30909041,23.7918351 7.45825552,23.7172525 C9.02448917,21.3306108 10.8144705,19.3168818 12.0077914,17.5269005 C10.0686449,19.1677167 8.50241129,22.0018538 6.93617763,23.7918351"/>
        <path id="Path" d="M55.8623338 36.1725393C56.3098291 36.3217044 55.6385861 36.8437822 55.489421 36.8437822 55.4148385 36.6946171 55.5640036 36.0979567 55.8623338 36.1725393M50.1940596 22.3747665C50.4923898 22.1510189 50.7907201 22.0764363 51.1636328 22.4493491 50.1194771 22.8968444 50.641555 24.2393304 49.5228166 24.9105734 49.299069 24.1647479 50.5669724 23.1205921 50.1940596 22.3747665M45.3461935 37.0675299C45.4207761 37.2912776 45.3461935 37.5150252 45.1224459 37.7387729 45.1224459 37.7387729 45.0478633 37.7387729 45.0478633 37.8133555 44.7495331 37.6641904 45.271611 37.3658601 45.3461935 37.0675299M45.1970284 37.8133555C45.1970284 37.8133555 45.1224459 37.8133555 45.1970284 37.8133555 45.1224459 37.8133555 45.1224459 37.8133555 45.1970284 37.8133555 45.1224459 37.8133555 45.1224459 37.8133555 45.1970284 37.8133555M23.2697572 36.1725393C23.3443398 36.0979567 23.4189223 35.9487916 23.4935049 35.7996265 23.4189223 35.9487916 23.3443398 36.0979567 23.2697572 36.1725393"/>
        <path id="Shape" d="M135.218173,58.4727232 L133.875687,58.845636 L131.563627,58.9202186 C131.563627,58.9202186 128.13283,58.6218884 131.190715,58.3981407 L133.204444,58.3981407 L135.218173,58.4727232 Z M127.088674,58.174393 L126.342848,58.5473058 L125.074945,58.6218884 C125.074945,58.6218884 123.284964,58.3235581 124.851197,58.0998105 L125.969936,58.0998105 L127.088674,58.174393 Z M206.66826,55.4148385 C201.820394,54.9673432 197.569189,54.7435955 193.2434,54.9673432 C191.378837,55.0419257 189.514273,55.0419257 187.724291,55.0419257 C182.801843,55.0419257 177.953977,54.9673432 173.031528,54.9673432 C169.3024,54.8927606 165.647855,54.6690129 161.918727,54.7435955 C156.175871,54.8927606 150.507596,54.6690129 144.76474,54.6690129 C142.303515,54.6690129 139.842291,54.6690129 137.381067,54.7435955 C133.950269,54.818178 130.594054,54.9673432 127.163257,55.1165083 C123.508711,55.2656734 119.928749,55.4148385 116.274203,55.489421 C113.067154,55.6385861 109.934686,55.7877513 106.727636,55.7877513 C101.656023,55.7877513 96.6589915,55.7131687 91.5873777,55.7131687 C85.9936861,55.7131687 80.474577,55.7877513 74.8808854,55.7877513 C68.9888635,55.7877513 63.1714242,55.7877513 57.2794024,55.7877513 C55.9369164,55.7877513 54.5944304,55.6385861 53.2519444,55.6385861 C50.2686422,55.6385861 47.3599225,55.9369164 44.3766203,55.7877513 C43.7053773,55.7131687 43.0341343,55.7877513 42.3628913,55.7877513 C38.9320938,55.8623338 35.5012963,55.8623338 32.1450813,55.9369164 C31.2500906,55.9369164 30.3550999,55.8623338 29.4601093,55.8623338 C25.8055641,55.9369164 22.2256014,56.0114989 18.5710562,56.0114989 C17.2285702,56.0114989 15.8860842,56.0114989 14.5435983,56.0114989 C13.9469378,56.0114989 13.3502774,56.0114989 12.7536169,56.0860815 C9.69573217,56.4589943 6.56326485,56.6081594 3.43079754,56.6081594 C3.50538009,57.2794024 3.57996265,57.9506454 3.6545452,58.6218884 C3.72912776,59.2931314 3.87829287,59.9643743 4.62411842,60.6356173 C5.44452653,60.7847825 6.4886823,61.1576952 7.45825552,61.1576952 C9.09907173,61.1576952 10.6653054,60.9339476 12.3061216,60.7101999 C13.7977727,60.5610348 15.2148413,60.3372871 16.7064924,60.188122 C17.2285702,60.1135395 17.7506481,60.188122 18.272726,60.1135395 C22.0764363,59.4422965 25.9547292,59.516879 29.7584395,59.2185488 C30.2059348,59.2185488 30.6534302,59.2185488 31.1009255,59.2185488 C32.2942464,59.2185488 33.4875673,59.2931314 34.6808881,59.2931314 C39.0066763,59.1439662 43.257882,58.845636 47.5836702,59.2185488 C49.299069,59.3677139 50.9398852,59.6660441 52.6552839,59.516879 C52.9536142,59.516879 53.2519444,59.516879 53.5502746,59.5914616 C56.6827419,60.0389569 59.7406267,60.1135395 62.873094,60.0389569 C63.9918323,59.9643743 65.1105707,59.9643743 66.229309,60.0389569 C68.3922031,60.2627046 70.5550972,60.0389569 72.6434087,59.8897918 C75.7012935,59.6660441 79.6541689,59.2931314 83.6816269,58.9202186 C84.2782873,58.845636 84.8749478,58.845636 85.4716082,58.9202186 C86.8140942,59.2185488 88.0819976,59.1439662 89.4244836,59.1439662 C91.0652998,59.1439662 92.7061161,59.2185488 94.3469323,59.3677139 C96.1369136,59.516879 97.8523124,59.8152092 99.6422937,59.9643743 C105.310568,60.4118697 110.90426,60.7101999 116.572534,60.4118697 C118.437098,60.3372871 120.227079,60.188122 122.091643,60.0389569 C124.403702,59.8897918 126.715761,59.6660441 128.953238,59.7406267 C133.055278,59.8897918 137.082736,59.4422965 141.184777,59.2931314 C143.869749,59.2185488 146.480138,58.9948011 149.16511,58.845636 C151.700917,58.6964709 154.236724,58.6218884 156.697948,58.4727232 C158.040434,58.3981407 159.38292,58.3235581 160.650824,58.2489756 C162.664553,58.0998105 164.603699,57.9506454 166.617428,57.8014802 C167.885332,57.7268977 169.153235,57.6523151 170.346556,57.5777326 C172.882363,57.4285675 175.41817,57.4285675 177.879394,57.2048198 C179.296463,57.1302373 180.713531,57.0556547 182.056017,57.1302373 C183.398503,57.2048198 184.740989,57.2794024 186.083475,57.1302373 C188.470117,56.831907 190.782176,56.7573245 193.168818,56.7573245 C193.914643,56.7573245 194.660469,56.7573245 195.406295,56.6827419 C197.569189,56.5335768 199.35917,56.0114989 201.522064,55.7877513 C202.789967,55.6385861 203.759541,55.7131687 205.102027,55.489421 C205.325774,55.7131687 205.997017,55.7131687 206.66826,55.4148385"/>
        <path id="Path" d="M84.502035 60.3372871L86.515764 60.3372871 88.529493 60.4118697 87.187007 60.7847825 84.8749478 60.859365C84.8003652 60.859365 81.4441502 60.6356173 84.502035 60.3372871M36.4708695 59.4422965L41.0949879 58.7710535 45.7191063 58.2489756 42.6612216 59.0693837 37.4404427 59.8897918C37.3658601 59.8897918 29.6092744 60.7101999 36.4708695 59.4422965M96.062331 59.9643743L100.686449 59.8152092 105.310568 59.8152092 102.178101 60.2627046 96.8827392 60.4864522C96.8827392 60.4864522 89.1261534 60.4864522 96.062331 59.9643743M56.3098291 60.2627046L52.2077886 60.4864522 48.1057481 60.4864522 50.8653026 59.3677139 55.489421 58.9202186C55.489421 58.9202186 62.4255987 59.2931314 56.3098291 60.2627046M27.5955454 60.3372871L35.2775486 60.3372871 42.9595518 60.4864522 37.7387729 61.1576952 29.012614 61.3068603C29.012614 61.2322778 16.0352494 60.7847825 27.5955454 60.3372871M79.5050038 59.8152092L80.6237421 59.8152092 81.7424805 59.8897918 80.9966549 60.2627046 79.7287515 60.3372871C79.7287515 60.3372871 77.9387701 60.0389569 79.5050038 59.8152092M40.0508321 59.6660441L41.1695704 59.6660441 42.2883088 59.7406267 41.5424832 60.1135395 40.2745798 60.188122C40.1999972 60.188122 38.4100159 59.8897918 40.0508321 59.6660441M17.9743958 60.7847825L19.0931341 60.7847825 20.2118724 60.859365 19.4660469 61.2322778 18.1981435 61.3068603C18.1981435 61.3068603 16.3335796 61.0831127 17.9743958 60.7847825"/>
      </g>
      <g id="Group" transform="translate(62.799 70.555)">
        <path id="Path" d="M6.19035208,4.9970312 C6.19035208,2.98330221 5.8174393,2.08831154 4.54953586,2.08831154 C3.13246732,2.08831154 2.8341371,3.50538009 2.8341371,7.45825552 C2.8341371,11.6348786 3.43079754,12.3807042 4.62411842,12.3807042 C5.66827419,12.3807042 6.33951719,11.8586263 6.33951719,8.87532406 L9.09907173,8.87532406 C9.09907173,11.8586263 8.35324618,14.4690157 4.69870097,14.4690157 C0.522077886,14.4690157 1.05988186e-14,11.4857135 1.05988186e-14,7.30909041 C1.05988186e-14,3.13246732 0.522077886,0.14916511 4.69870097,0.14916511 C8.72615895,0.14916511 8.94990662,3.05788476 8.94990662,5.07161375 L6.19035208,5.07161375 L6.19035208,4.9970312 Z"/>
        <path id="Shape" d="M15.7369191,-1.05988186e-14 C19.9135422,-1.05988186e-14 20.4356201,2.98330221 20.4356201,7.1599253 C20.4356201,11.3365484 19.9135422,14.3198506 15.7369191,14.3198506 C11.560296,14.3198506 11.0382182,11.3365484 11.0382182,7.1599253 C10.9636356,2.98330221 11.4857135,-1.05988186e-14 15.7369191,-1.05988186e-14 Z M15.7369191,12.3807042 C17.3777354,12.3807042 17.6760656,10.9636356 17.6760656,7.23450785 C17.6760656,3.50538009 17.3777354,2.08831154 15.7369191,2.08831154 C14.0961029,2.08831154 13.7977727,3.50538009 13.7977727,7.23450785 C13.7977727,10.9636356 14.0215204,12.3807042 15.7369191,12.3807042 Z"/>
        <polygon id="Path" points="22.673 14.171 22.673 .298 25.433 .298 25.433 11.859 30.355 11.859 30.355 14.171"/>
        <path id="Shape" d="M36.6946171,-1.05988186e-14 C40.8712402,-1.05988186e-14 41.3933181,2.98330221 41.3933181,7.1599253 C41.3933181,11.3365484 40.8712402,14.3198506 36.6946171,14.3198506 C32.517994,14.3198506 31.9959162,11.3365484 31.9959162,7.1599253 C31.9959162,2.98330221 32.517994,-1.05988186e-14 36.6946171,-1.05988186e-14 Z M36.6946171,12.3807042 C38.3354334,12.3807042 38.6337636,10.9636356 38.6337636,7.23450785 C38.6337636,3.50538009 38.3354334,2.08831154 36.6946171,2.08831154 C35.0538009,2.08831154 34.7554707,3.50538009 34.7554707,7.23450785 C34.7554707,10.9636356 35.0538009,12.3807042 36.6946171,12.3807042 Z"/>
        <polygon id="Path" points="43.78 .298 47.957 .298 49.97 10.069 50.045 10.069 52.059 .298 56.161 .298 56.161 14.171 53.625 14.171 53.625 3.058 53.55 3.058 51.089 14.096 48.926 14.096 46.316 3.058 46.316 3.058 46.316 14.096 43.78 14.096"/>
        <path id="Shape" d="M58.6218884,0.298330221 L63.3205893,0.298330221 C65.6326485,0.298330221 67.2734648,1.11873833 67.2734648,3.80371031 C67.2734648,5.29536142 66.5276392,6.41409974 65.1851532,6.86159507 L65.1851532,6.93617763 C66.7513869,7.1599253 67.7209601,8.27866362 67.7209601,10.1432275 C67.7209601,12.3061216 66.6768043,14.1706855 63.3951719,14.1706855 L58.6964709,14.1706855 L58.6964709,0.298330221 L58.6218884,0.298330221 Z M61.4560255,5.96660441 L62.2764336,5.96660441 C63.8426672,5.96660441 64.5139102,5.44452653 64.5139102,4.17662309 C64.5139102,2.8341371 63.8426672,2.38664177 62.5001812,2.38664177 L61.4560255,2.38664177 L61.4560255,5.96660441 Z M61.4560255,12.0823739 L62.5747638,12.0823739 C63.9172498,12.0823739 64.8122404,11.560296 64.8122404,9.99406239 C64.8122404,8.42782873 63.9172498,7.90575085 62.6493463,7.90575085 L61.4560255,7.90575085 L61.4560255,12.0823739 Z"/>
        <polygon id="Path" points="70.182 14.171 70.182 .298 72.942 .298 72.942 14.171 70.182 14.171"/>
        <path id="Shape" d="M78.3862655,0.298330221 L81.817063,0.298330221 L85.4716082,14.1706855 L82.5628886,14.1706855 L81.8916456,11.2619658 L78.2371004,11.2619658 L77.5658574,14.1706855 L74.6571377,14.1706855 L78.3862655,0.298330221 Z M78.7591782,8.94990662 L81.4441502,8.94990662 L80.1016642,2.75955454 L80.0270817,2.75955454 L78.7591782,8.94990662 Z"/>
      </g>
    </g>
  </g>
</svg>
